<?xml version="1.0" encoding="UTF-8"?>
<svg id="Layer_1" data-name="Layer 1" xmlns="http://www.w3.org/2000/svg" version="1.1" viewBox="0 0 153 39.5" width="153" height="39.5">
  <g>
    <path d="M54.6,10.4h-2.1V.1h2.1v10.2Z" fill="#747678" stroke-width="0"/>
    <path d="M58.8,10.4h-2.1V.1h1.6l4.9,6.6V.1h2.1v10.2h-1.6l-4.9-6.5v6.5Z" fill="#747678" stroke-width="0"/>
    <path d="M67,9.7v-1.9c.4.3.9.5,1.5.6.5.1,1.1.2,1.6.2s.9,0,1.1-.3c.3-.2.4-.5.4-.8s-.1-.6-.4-.8c-.3-.2-.7-.4-1.3-.7-.6-.3-1.1-.5-1.4-.7-.4-.2-.7-.5-1-.9-.3-.4-.4-.9-.4-1.4s.1-1.1.4-1.6c.3-.5.7-.8,1.2-1.1.5-.3,1.2-.4,1.9-.4s1.8.2,2.6.6v1.9c-.8-.4-1.6-.6-2.5-.6s-.8,0-1.1.3-.4.4-.4.8.1.5.4.7c.3.2.7.4,1.2.6.6.3,1.1.5,1.5.7.4.2.7.5,1,.9.3.4.4.9.4,1.5s-.2,1.2-.5,1.6c-.3.5-.7.8-1.3,1.1-.5.3-1.2.4-1.9.4-1,0-2.1-.3-3.1-.8Z" fill="#747678" stroke-width="0"/>
    <path d="M79.4,10.4h-2.1V2.1h-2.9V.1h8v2h-3v8.2Z" fill="#747678" stroke-width="0"/>
    <path d="M86.2,10.4h-2.1V.1h2.1v10.2Z" fill="#747678" stroke-width="0"/>
    <path d="M93,10.4h-2.1V2.1h-2.9V.1h8v2h-3v8.2Z" fill="#747678" stroke-width="0"/>
    <path d="M99.7,9.9c-.6-.4-1.1-.9-1.5-1.7-.4-.7-.5-1.6-.5-2.6V.1h2.1v5.6c0,.9.2,1.6.5,2.1.4.5.9.7,1.5.7s1.2-.2,1.6-.7c.4-.5.6-1.2.6-2.1V.1h2.1v5.5c0,1-.2,1.9-.5,2.6-.4.7-.9,1.3-1.5,1.6-.6.4-1.4.6-2.3.6s-1.6-.2-2.2-.6Z" fill="#747678" stroke-width="0"/>
    <path d="M112.9,10.4h-2.1V2.1h-2.9V.1h8v2h-3v8.2Z" fill="#747678" stroke-width="0"/>
    <path d="M119.1,9.9c-.7-.4-1.3-1-1.7-1.8-.4-.8-.6-1.7-.6-2.8s.2-2,.6-2.8c.4-.8,1-1.4,1.7-1.8.7-.4,1.5-.6,2.4-.6s1.7.2,2.5.6c.7.4,1.3,1,1.7,1.8.4.8.6,1.7.6,2.8s-.2,2-.6,2.8c-.4.8-1,1.4-1.8,1.8-.7.4-1.6.6-2.4.6s-1.7-.2-2.4-.6ZM122.9,8.2c.4-.2.7-.6,1-1.1.2-.5.4-1.1.4-1.8s-.1-1.3-.4-1.8c-.2-.5-.6-.9-1-1.1-.4-.3-.8-.4-1.4-.4s-.9.1-1.3.4c-.4.2-.7.6-1,1.1-.2.5-.4,1.1-.4,1.8s.1,1.3.4,1.8c.2.5.6.9,1,1.1.4.2.8.4,1.3.4s.9-.1,1.3-.4Z" fill="#747678" stroke-width="0"/>
    <path d="M57.1,24.9h-2.1v-8.2h-2.9v-2h8v2h-3v8.2Z" fill="#747678" stroke-width="0"/>
    <path d="M68.7,24.9h-6.9v-10.2h6.9v1.8h-4.8v2.4h4.4v1.8h-4.4v2.4h4.8v1.8Z" fill="#747678" stroke-width="0"/>
    <path d="M72.5,24.4c-.8-.5-1.4-1.1-1.8-1.9-.4-.8-.6-1.7-.6-2.6s.2-1.8.6-2.7c.4-.8,1-1.4,1.8-1.9s1.7-.7,2.7-.7.9,0,1.4.2c.5.1.9.2,1.2.4v1.9c-.4-.1-.8-.3-1.2-.4-.4,0-.8-.1-1.2-.1-.7,0-1.3.1-1.8.4-.5.3-.8.7-1.1,1.2-.2.5-.4,1.1-.4,1.7,0,1,.3,1.8.9,2.4s1.4.9,2.6.9,1.6-.2,2.3-.5v1.9c-.8.4-1.6.6-2.7.6s-2.1-.2-2.9-.7Z" fill="#747678" stroke-width="0"/>
    <path d="M82,24.9h-2.1v-10.2h1.6l4.9,6.6v-6.6h2.1v10.2h-1.6l-4.9-6.5v6.5Z" fill="#747678" stroke-width="0"/>
    <path d="M92.5,24.5c-.7-.4-1.3-1-1.7-1.8-.4-.8-.6-1.7-.6-2.8s.2-2,.6-2.8c.4-.8,1-1.4,1.7-1.8.7-.4,1.5-.6,2.4-.6s1.7.2,2.5.6c.7.4,1.3,1,1.7,1.8.4.8.6,1.7.6,2.8s-.2,2-.6,2.8c-.4.8-1,1.4-1.8,1.8-.7.4-1.6.6-2.4.6s-1.7-.2-2.4-.6ZM96.3,22.8c.4-.2.7-.6,1-1.1.2-.5.4-1.1.4-1.8s-.1-1.3-.4-1.8c-.2-.5-.6-.9-1-1.1-.4-.3-.8-.4-1.4-.4s-.9.1-1.3.4c-.4.2-.7.6-1,1.1-.2.5-.4,1.1-.4,1.8s.1,1.3.4,1.8c.2.5.6.9,1,1.1.4.2.8.4,1.3.4s.9-.1,1.3-.4Z" fill="#747678" stroke-width="0"/>
    <path d="M107.9,24.9h-6.5v-10.2h2.1v8.2h4.4v2Z" fill="#747678" stroke-width="0"/>
    <path d="M111.2,24.5c-.7-.4-1.3-1-1.7-1.8-.4-.8-.6-1.7-.6-2.8s.2-2,.6-2.8c.4-.8,1-1.4,1.7-1.8.7-.4,1.5-.6,2.4-.6s1.7.2,2.5.6c.7.4,1.3,1,1.7,1.8.4.8.6,1.7.6,2.8s-.2,2-.6,2.8c-.4.8-1,1.4-1.8,1.8-.7.4-1.6.6-2.4.6s-1.7-.2-2.4-.6ZM115,22.8c.4-.2.7-.6,1-1.1.2-.5.4-1.1.4-1.8s-.1-1.3-.4-1.8c-.2-.5-.6-.9-1-1.1-.4-.3-.8-.4-1.4-.4s-.9.1-1.3.4c-.4.2-.7.6-1,1.1-.2.5-.4,1.1-.4,1.8s.1,1.3.4,1.8c.2.5.6.9,1,1.1.4.2.8.4,1.3.4s.9-.1,1.3-.4ZM114.2,13.8h-1.7l1.6-2.2h2.3l-2.1,2.2Z" fill="#747678" stroke-width="0"/>
    <path d="M122.2,24.4c-.8-.4-1.4-1-1.8-1.8-.4-.8-.7-1.7-.7-2.7s.2-1.9.6-2.7,1-1.4,1.8-1.9c.8-.5,1.7-.7,2.8-.7s1,0,1.5.1c.5,0,1,.2,1.4.4v1.9c-.4-.1-.9-.3-1.4-.4-.5,0-1-.1-1.4-.1-.7,0-1.3.1-1.8.4-.5.3-.8.7-1.1,1.2-.2.5-.4,1.1-.4,1.7s.1,1.2.4,1.7c.3.5.6.9,1.1,1.2.5.3,1.1.5,1.8.5s.9,0,1.2-.1v-2h-1.7v-1.8h3.7v4.8c-1.1.6-2.2.9-3.6.9s-1.9-.2-2.7-.6Z" fill="#747678" stroke-width="0"/>
    <path d="M132.7,24.9h-2.1v-10.2h2.1v10.2Z" fill="#747678" stroke-width="0"/>
    <path d="M136.7,24.4c-.8-.5-1.4-1.1-1.8-1.9-.4-.8-.6-1.7-.6-2.6s.2-1.8.6-2.7c.4-.8,1-1.4,1.8-1.9s1.7-.7,2.7-.7.9,0,1.4.2c.5.1.9.2,1.2.4v1.9c-.4-.1-.8-.3-1.2-.4-.4,0-.8-.1-1.2-.1-.7,0-1.3.1-1.8.4-.5.3-.8.7-1.1,1.2-.2.5-.4,1.1-.4,1.7,0,1,.3,1.8.9,2.4s1.4.9,2.6.9,1.6-.2,2.3-.5v1.9c-.8.4-1.6.6-2.7.6s-2.1-.2-2.9-.7Z" fill="#747678" stroke-width="0"/>
    <path d="M145.7,24.5c-.7-.4-1.3-1-1.7-1.8-.4-.8-.6-1.7-.6-2.8s.2-2,.6-2.8c.4-.8,1-1.4,1.7-1.8.7-.4,1.5-.6,2.4-.6s1.7.2,2.5.6c.7.4,1.3,1,1.7,1.8.4.8.6,1.7.6,2.8s-.2,2-.6,2.8c-.4.8-1,1.4-1.8,1.8-.7.4-1.6.6-2.4.6s-1.7-.2-2.4-.6ZM149.5,22.8c.4-.2.7-.6,1-1.1.2-.5.4-1.1.4-1.8s-.1-1.3-.4-1.8c-.2-.5-.6-.9-1-1.1-.4-.3-.8-.4-1.4-.4s-.9.1-1.3.4c-.4.2-.7.6-1,1.1-.2.5-.4,1.1-.4,1.8s.1,1.3.4,1.8c.2.5.6.9,1,1.1.4.2.8.4,1.3.4s.9-.1,1.3-.4Z" fill="#747678" stroke-width="0"/>
    <path d="M55.6,39.5l-3.9-10.2h2.3l2.7,7.4c1.2-3,2-5.5,2.4-7.4h2.2c-.4,1.4-.9,3-1.5,4.6s-1.4,3.5-2.3,5.6h-1.9Z" fill="#747678" stroke-width="0"/>
    <path d="M62.7,39.5h-2.1l3.9-10.2h1.9l3.9,10.2h-2.3l-.7-2h-3.9l-.7,2ZM65.4,32l-1.4,3.8h2.7l-1.3-3.8Z" fill="#747678" stroke-width="0"/>
    <path d="M78.2,39.5h-6.5v-10.2h2.1v8.2h4.4v2Z" fill="#747678" stroke-width="0"/>
    <path d="M86.7,39.5h-6.9v-10.2h6.9v1.8h-4.8v2.4h4.4v1.8h-4.4v2.4h4.8v1.8Z" fill="#747678" stroke-width="0"/>
  </g>
  <path d="M16.1,19.5v-11.1L0,.1v13.6c0,1.2.7,2.3,1.8,2.9l11.4,5.9c1.3.7,2.1,2,2.1,3.5v10.8c0,1.4,1.2,2.6,2.6,2.6h12.7c1.4,0,2.6-1.2,2.6-2.6v-11.3c0-1.4-1.2-2.6-2.6-2.6h-11.2c-1.8,0-3.3-1.5-3.3-3.3" fill="#007e7a" stroke-width="0"/>
  <path d="M41.1,8.4h-24.9L0,.1h27.8c.8,0,1.5.2,2.2.5l11.5,5.9c.9.5.6,1.9-.4,1.9" fill="#edb111" stroke-width="0"/>
</svg>