<svg xmlns="http://www.w3.org/2000/svg" xmlns:xlink="http://www.w3.org/1999/xlink" width="81.564" height="75.061" viewBox="0 0 81.564 75.061">
  <defs>
    <clipPath id="clip-path">
      <rect id="Retângulo_15665" data-name="Retângulo 15665" width="81.564" height="75.061" fill="none"/>
    </clipPath>
  </defs>
  <g id="Grupo_101471" data-name="Grupo 101471" transform="translate(0 0)">
    <g id="Grupo_101327" data-name="Grupo 101327" transform="translate(0 0)" clip-path="url(#clip-path)">
      <path id="Caminho_26301" data-name="Caminho 26301" d="M54.157,47.9a6.67,6.67,0,0,0-6.893,6.944,6.621,6.621,0,0,0,6.893,6.919,6.607,6.607,0,0,0,6.893-6.919A6.627,6.627,0,0,0,54.157,47.9m.262,9.784h0a2.832,2.832,0,0,1-2.869-2.84,2.751,2.751,0,0,1,2.841-2.789,2.692,2.692,0,0,1,2.786,2.789,2.728,2.728,0,0,1-2.758,2.84" transform="translate(13.115 13.293)" fill="#134213"/>
      <path id="Caminho_26302" data-name="Caminho 26302" d="M22.078,57.053,18.2,56c-.207-.052-.231.051-.31.18a3.769,3.769,0,0,1-3.613,2.169c-2.17,0-4.313-1.473-4.313-4.7,0-2.763,1.653-4.8,4.235-4.8a3.885,3.885,0,0,1,3.77,2.348c.05.13.077.181.231.13l3.846-1.5c.1-.052.208-.156.078-.466A8.318,8.318,0,0,0,14.1,44.428a9.153,9.153,0,0,0,.129,18.3,8.676,8.676,0,0,0,8.08-5.344c.051-.155.026-.284-.233-.336" transform="translate(1.405 12.328)" fill="#134213"/>
      <path id="Caminho_26303" data-name="Caminho 26303" d="M44.161,53.18a3.868,3.868,0,0,0,3.1-3.872c0-2.891-1.911-4.6-5.087-4.6H35.043a.577.577,0,0,0-.46.139c-.045.049-.162.189-.2.241-1.8,2.245-4.3,5.21-5.433,6.3a.854.854,0,0,1-.568.333c-.156-.012-.31-.147-.53-.319-1.141-.9-3.438-3.7-5.45-5.861-.336-.359-.494-.544-.654-.72a.268.268,0,0,0-.25-.1c-.248-.006-1.283-.01-1.8,0-.04,0-.189,0-.189.133,0,.3-.061,10.346,0,17.021,0,.207.017.362.275.362h4.125c.181,0,.207-.078.207-.206V54.391c.583.53,3.433,2.951,3.779,3.164.234.143.356.24.475.243s.244-.1.471-.243c.347-.213,3.2-2.634,3.78-3.164v7.638c0,.128.026.206.207.206l9.99-.018c3.072,0,4.931-1.91,4.931-4.751a4.175,4.175,0,0,0-3.587-4.286m-6.713-4.853h3.459A1.486,1.486,0,0,1,42.56,49.98a1.507,1.507,0,0,1-1.653,1.651H37.448ZM41.165,58.6H37.448v-3.8h3.717a1.786,1.786,0,0,1,1.781,1.91A1.685,1.685,0,0,1,41.165,58.6" transform="translate(5.405 12.406)" fill="#134213"/>
      <path id="Caminho_26304" data-name="Caminho 26304" d="M44.789,44.28a2.232,2.232,0,1,0,2.232,2.232,2.231,2.231,0,0,0-2.232-2.232" transform="translate(11.809 12.287)" fill="#134213"/>
      <path id="Caminho_26305" data-name="Caminho 26305" d="M63.058,47.759a1.4,1.4,0,1,0,1.4,1.4,1.4,1.4,0,0,0-1.4-1.4" transform="translate(17.11 13.252)" fill="#c5c100"/>
      <path id="Caminho_26306" data-name="Caminho 26306" d="M59.8,47.8a1.332,1.332,0,1,0,1.334,1.332A1.333,1.333,0,0,0,59.8,47.8" transform="translate(16.223 13.265)" fill="#3a713a"/>
      <path id="Caminho_26307" data-name="Caminho 26307" d="M59.707,46.557a.848.848,0,1,0-.848.848.849.849,0,0,0,.848-.848" transform="translate(16.097 12.684)" fill="#c5c100"/>
      <path id="Caminho_26308" data-name="Caminho 26308" d="M56.134,45.23a.847.847,0,1,0,1.248.743.9.9,0,0,0-.019-.175,1.187,1.187,0,0,1-.215.022,1.173,1.173,0,0,1-1.014-.59" transform="translate(15.452 12.551)" fill="#3a713a"/>
      <path id="Caminho_26309" data-name="Caminho 26309" d="M57.087,43.848a1.178,1.178,0,0,0-1.178,1.178A1.193,1.193,0,0,0,57.087,46.2a1.187,1.187,0,0,0,.215-.022,1.177,1.177,0,0,0-.215-2.334" transform="translate(15.514 12.167)" fill="#134213"/>
      <path id="Caminho_26310" data-name="Caminho 26310" d="M54.379,42.741a.639.639,0,1,0,.637.639.64.64,0,0,0-.637-.639" transform="translate(14.911 11.86)" fill="#648214"/>
      <path id="Caminho_26311" data-name="Caminho 26311" d="M56.54,47.125a1.9,1.9,0,1,0,1.9,1.9,1.9,1.9,0,0,0-1.9-1.9" transform="translate(15.163 13.076)" fill="#648214"/>
      <path id="Caminho_26312" data-name="Caminho 26312" d="M41.132,21.325a2.394,2.394,0,0,1,1.155.3A3.175,3.175,0,0,0,41.83,19.2a1.868,1.868,0,0,1-.885.222,1.887,1.887,0,1,1,0-3.774c.027,0,.054,0,.08,0a2.366,2.366,0,1,0-3.212,2.418,3.238,3.238,0,0,0-1.888,2.933,3.178,3.178,0,0,0,2.84,3.155,2.4,2.4,0,0,1,2.367-2.837" transform="translate(9.968 3.747)" fill="#134213"/>
      <path id="Caminho_26313" data-name="Caminho 26313" d="M42.561,28.635a1.177,1.177,0,1,0,1.177-1.173,1.176,1.176,0,0,0-1.177,1.173" transform="translate(11.81 7.62)" fill="#3a713a"/>
      <path id="Caminho_26314" data-name="Caminho 26314" d="M38.5,8.867a.85.85,0,1,0-.851-.851.849.849,0,0,0,.851.851" transform="translate(10.446 1.989)" fill="#3a713a"/>
      <path id="Caminho_26315" data-name="Caminho 26315" d="M36.509,7.413A.874.874,0,1,0,35.47,7.04c.032-.011.063-.024.1-.033a.863.863,0,0,1,.943.406" transform="translate(9.809 1.594)" fill="#c5c100"/>
      <path id="Caminho_26316" data-name="Caminho 26316" d="M36.062,8.417A.865.865,0,0,0,36.7,7.376a.838.838,0,0,0-.1-.233.861.861,0,0,0-.942-.406.789.789,0,0,0-.1.033.861.861,0,0,0,.494,1.647" transform="translate(9.711 1.863)" fill="#3a713a"/>
      <path id="Caminho_26317" data-name="Caminho 26317" d="M45.881,14.283c0-.04,0-.079.006-.119A2.891,2.891,0,1,0,47.636,16.3a2.038,2.038,0,0,1-1.755-2.017" transform="translate(11.633 3.872)" fill="#c5c100"/>
      <path id="Caminho_26318" data-name="Caminho 26318" d="M26.213,24.4v-.013A3.791,3.791,0,0,0,22.379,20.6a3.836,3.836,0,0,0-2.025.6A2.132,2.132,0,0,1,18.6,23.841a3.832,3.832,0,0,0-.052.609,3.79,3.79,0,0,0,3.835,3.788,3.828,3.828,0,0,0,1.3-.241,2.748,2.748,0,0,1-.121-.812A2.79,2.79,0,0,1,26.213,24.4" transform="translate(5.147 5.716)" fill="#134213"/>
      <path id="Caminho_26319" data-name="Caminho 26319" d="M21.858,16.865c-.047,0-.095.005-.141.009a2.738,2.738,0,0,0-4.1-2.971,2.766,2.766,0,0,0-.379,4.442,1.753,1.753,0,0,1,2.948,1.863A2.07,2.07,0,0,0,21.463,21a1.7,1.7,0,0,1-.017-.216,1.5,1.5,0,0,1,2.4-1.194,2.1,2.1,0,0,0,.106-.655,2.029,2.029,0,0,0-.038-.387,2.675,2.675,0,0,1-.47-.967,2.072,2.072,0,0,0-1.585-.713" transform="translate(4.522 3.744)" fill="#134213"/>
      <path id="Caminho_26320" data-name="Caminho 26320" d="M18.487,16.768a1.759,1.759,0,0,0-1.74,1.533.917.917,0,0,1,.134-.014.959.959,0,0,1,.625,1.691,1.755,1.755,0,1,0,.981-3.21" transform="translate(4.647 4.653)" fill="#648214"/>
      <path id="Caminho_26321" data-name="Caminho 26321" d="M26.758,38.306a2.244,2.244,0,0,1,.324-1.161,2.227,2.227,0,0,0-2.253.059,2.271,2.271,0,0,0-.749,3.1,2.225,2.225,0,0,0,3.079.729,2.259,2.259,0,0,0,.75-.761,2.261,2.261,0,0,1-1.151-1.967" transform="translate(6.591 10.23)" fill="#134213"/>
      <path id="Caminho_26322" data-name="Caminho 26322" d="M22.815,42.1a.676.676,0,0,1-.01.1,1.616,1.616,0,0,0,1.012-.235,1.646,1.646,0,0,0,.544-2.251,1.614,1.614,0,0,0-2.237-.533,1.649,1.649,0,0,0-.544,2.252,1.679,1.679,0,0,0,.129.179.659.659,0,0,1,1.106.485" transform="translate(5.922 10.805)" fill="#134213"/>
      <path id="Caminho_26323" data-name="Caminho 26323" d="M26.817,42.373a1.553,1.553,0,1,0-2.11,1.449c.029,0,.059-.009.089-.009a.909.909,0,0,1,.434.114h.033a1.555,1.555,0,0,0,1.553-1.555" transform="translate(6.579 11.327)" fill="#648214"/>
      <path id="Caminho_26324" data-name="Caminho 26324" d="M21.46,41.558a.66.66,0,0,0,1.312.1.676.676,0,0,0,.01-.1.661.661,0,0,0-1.322,0" transform="translate(5.955 11.349)" fill="#648214"/>
      <path id="Caminho_26325" data-name="Caminho 26325" d="M29.721,42.008A1.424,1.424,0,1,0,28.3,43.432a1.424,1.424,0,0,0,1.424-1.424" transform="translate(7.456 11.262)" fill="#134213"/>
      <path id="Caminho_26326" data-name="Caminho 26326" d="M29.617,36.608a2.257,2.257,0,1,0-.422,3.973A1.979,1.979,0,0,1,30.608,38.7a1.949,1.949,0,0,0,.011-.212,2.245,2.245,0,0,0-.106-.685,2.2,2.2,0,0,1-.9-1.191" transform="translate(7.244 10.052)" fill="#648214"/>
      <path id="Caminho_26327" data-name="Caminho 26327" d="M28.523,40.063v.009a1.97,1.97,0,1,0,0-.009" transform="translate(7.915 10.57)" fill="#3a713a"/>
      <path id="Caminho_26328" data-name="Caminho 26328" d="M8.522,13.825a1.469,1.469,0,0,1-.861,1.338,2.082,2.082,0,0,1,.051.457,2.147,2.147,0,0,1-.022.289A2.977,2.977,0,1,0,12.3,12.365,1.45,1.45,0,0,1,9.461,11.8a2.975,2.975,0,0,0-1.4.959,1.463,1.463,0,0,1,.457,1.062" transform="translate(2.126 3.276)" fill="#648214"/>
      <path id="Caminho_26329" data-name="Caminho 26329" d="M15.953,20.893a3.211,3.211,0,1,0-.8.675,1.583,1.583,0,0,1,.8-.675" transform="translate(2.866 4.335)" fill="#3a713a"/>
      <path id="Caminho_26330" data-name="Caminho 26330" d="M27.6,43.744a.89.89,0,0,0,.162-.515.9.9,0,1,0-1.691.424,1.4,1.4,0,0,1,1.529.091" transform="translate(7.203 11.745)" fill="#3a713a"/>
      <path id="Caminho_26331" data-name="Caminho 26331" d="M43.171,26.046v-.038a2.605,2.605,0,0,0-5.2-.213,2.478,2.478,0,0,0-1.573-.631c-.028,0-.056,0-.084,0A2.491,2.491,0,0,0,34.1,26.508a2.482,2.482,0,0,0,.445,2.89,2.5,2.5,0,0,0,1.767.737c.069,0,.135,0,.2-.01a2.5,2.5,0,0,0,2.27-2.215,2.6,2.6,0,0,0,4.019-.572,1.487,1.487,0,0,1-.022-.252,1.586,1.586,0,0,1,.387-1.039" transform="translate(9.386 6.494)" fill="#3a713a"/>
      <path id="Caminho_26332" data-name="Caminho 26332" d="M41.283,23.451a.7.7,0,1,0,.7-.7.7.7,0,0,0-.7.7" transform="translate(11.455 6.314)" fill="#3a713a"/>
      <path id="Caminho_26333" data-name="Caminho 26333" d="M33.177,33.263a1.631,1.631,0,1,0,2.052-.456,3.348,3.348,0,0,1-1.716.474,3.251,3.251,0,0,1-.336-.018" transform="translate(9.112 9.104)" fill="#c5c100"/>
      <path id="Caminho_26334" data-name="Caminho 26334" d="M24.431,37.135a.781.781,0,1,0-.781-.781.781.781,0,0,0,.781.781" transform="translate(6.562 9.871)" fill="#134213"/>
      <path id="Caminho_26335" data-name="Caminho 26335" d="M21.089,39.075a.839.839,0,1,0-.839-.839.84.84,0,0,0,.839.839" transform="translate(5.619 10.377)" fill="#3a713a"/>
      <path id="Caminho_26336" data-name="Caminho 26336" d="M37.023,32.517a.6.6,0,1,0-.6.6.6.6,0,0,0,.6-.6" transform="translate(9.94 8.856)" fill="#134213"/>
      <path id="Caminho_26337" data-name="Caminho 26337" d="M35,37.484a.958.958,0,1,0,.958-.958.96.96,0,0,0-.958.958" transform="translate(9.711 10.135)" fill="#c5c100"/>
      <path id="Caminho_26338" data-name="Caminho 26338" d="M35.958,29.011a2.33,2.33,0,0,0,1.877,3.048A1.63,1.63,0,1,0,40.24,30.83a2.332,2.332,0,0,0-2.068-3.416c-.032,0-.064,0-.095.005a2.486,2.486,0,0,1-2.119,1.592" transform="translate(9.944 7.607)" fill="#134213"/>
      <path id="Caminho_26339" data-name="Caminho 26339" d="M34.713,41.32a.945.945,0,1,0,.944-.944.945.945,0,0,0-.944.944" transform="translate(9.632 11.204)" fill="#3a713a"/>
      <path id="Caminho_26340" data-name="Caminho 26340" d="M22.863,30.85a2.361,2.361,0,0,1,.9-1.852,2.247,2.247,0,1,0,.014,3.724,2.371,2.371,0,0,1-.912-1.872" transform="translate(5.625 7.942)" fill="#134213"/>
      <path id="Caminho_26341" data-name="Caminho 26341" d="M15.508,22.831a1.579,1.579,0,1,0-1.58-1.582,1.582,1.582,0,0,0,1.58,1.582" transform="translate(3.865 5.458)" fill="#134213"/>
      <path id="Caminho_26342" data-name="Caminho 26342" d="M43.188,11.785a1.32,1.32,0,0,1-1.322-1.325,1.261,1.261,0,0,1,.01-.156,2.647,2.647,0,0,0-1.175.362c0,.043.013.084.013.129A1.136,1.136,0,0,1,39.59,11.93a2.671,2.671,0,0,0,.954,3.238,1.195,1.195,0,0,1,2.386.088,1.209,1.209,0,0,1-.024.238,2.664,2.664,0,0,0,1.265-4.149,1.315,1.315,0,0,1-.984.439" transform="translate(10.928 2.859)" fill="#648214"/>
      <path id="Caminho_26343" data-name="Caminho 26343" d="M38.377,17.064a1.888,1.888,0,0,0,1.886,1.893,1.86,1.86,0,0,0,.885-.221,1.884,1.884,0,0,0-.8-3.548c-.027,0-.054-.005-.082-.005a1.888,1.888,0,0,0-1.886,1.88" transform="translate(10.649 4.213)" fill="#3a713a"/>
      <path id="Caminho_26344" data-name="Caminho 26344" d="M42.28,20.392a2.38,2.38,0,0,0-1.757-.766,2.4,2.4,0,1,0,2.4,2.407,2.189,2.189,0,0,0-.011-.225,2.016,2.016,0,0,1-.635-1.415" transform="translate(10.577 5.446)" fill="#c5c100"/>
      <path id="Caminho_26345" data-name="Caminho 26345" d="M41.482,13.247a1.193,1.193,0,0,0-1.189,1.105c0,.029-.009.057-.009.088a1.2,1.2,0,1,0,1.2-1.193" transform="translate(11.178 3.676)" fill="#134213"/>
      <path id="Caminho_26346" data-name="Caminho 26346" d="M41.25,7.624A1.822,1.822,0,1,0,39.433,5.8,1.819,1.819,0,0,0,41.25,7.624" transform="translate(10.942 1.104)" fill="#c5c100"/>
      <path id="Caminho_26347" data-name="Caminho 26347" d="M26.9,4.686a.844.844,0,0,1-.843.844.789.789,0,0,1-.2-.027,1.558,1.558,0,1,0,.538-1.589.845.845,0,0,1,.5.772" transform="translate(7.174 0.991)" fill="#c5c100"/>
      <path id="Caminho_26348" data-name="Caminho 26348" d="M28.458,5.376a1.13,1.13,0,1,0,1.128-1.132,1.127,1.127,0,0,0-1.128,1.132" transform="translate(7.897 1.178)" fill="#3a713a"/>
      <path id="Caminho_26349" data-name="Caminho 26349" d="M31.628,6.01a.466.466,0,1,0-.464-.466.466.466,0,0,0,.464.466" transform="translate(8.647 1.409)" fill="#3a713a"/>
      <path id="Caminho_26350" data-name="Caminho 26350" d="M33.753,36.153a.465.465,0,1,0-.466.465.466.466,0,0,0,.466-.465" transform="translate(9.108 9.903)" fill="#134213"/>
      <path id="Caminho_26351" data-name="Caminho 26351" d="M26.768,2.3A.466.466,0,1,0,26.3,1.83a.465.465,0,0,0,.465.466" transform="translate(7.299 0.379)" fill="#c5c100"/>
      <path id="Caminho_26352" data-name="Caminho 26352" d="M24.364,8.225a2.074,2.074,0,1,0-1.407-.48,1.446,1.446,0,0,1,.183-.011,1.726,1.726,0,0,1,1.224.492" transform="translate(6.164 1.128)" fill="#648214"/>
      <path id="Caminho_26353" data-name="Caminho 26353" d="M31.472,9.8A2.066,2.066,0,0,0,32,11.112a3.459,3.459,0,0,1,1.736-.488,3.42,3.42,0,0,1,1.486.328A2.08,2.08,0,0,0,32.5,7.921c.005.055.009.11.009.166A1.925,1.925,0,0,1,31.472,9.8" transform="translate(8.733 2.119)" fill="#3a713a"/>
      <path id="Caminho_26354" data-name="Caminho 26354" d="M41.335,10.558a1.244,1.244,0,0,0-.01.156,1.335,1.335,0,1,0,.01-.156" transform="translate(11.467 2.605)" fill="#c5c100"/>
      <path id="Caminho_26355" data-name="Caminho 26355" d="M44.86,13.441a.632.632,0,1,0-.63-.631.63.63,0,0,0,.63.631" transform="translate(12.273 3.379)" fill="#c5c100"/>
      <path id="Caminho_26356" data-name="Caminho 26356" d="M45.742,11.811a.632.632,0,1,0-.63-.631.63.63,0,0,0,.63.631" transform="translate(12.518 2.927)" fill="#134213"/>
      <path id="Caminho_26357" data-name="Caminho 26357" d="M40.918,10.934c0-.043-.009-.086-.013-.129a1.134,1.134,0,1,0-1.124,1.266h.014a1.136,1.136,0,0,0,1.123-1.136" transform="translate(10.723 2.72)" fill="#134213"/>
      <path id="Caminho_26358" data-name="Caminho 26358" d="M11.584,8.323a2.05,2.05,0,0,1-.491,1.332,2.65,2.65,0,0,0,1.629.929,2.756,2.756,0,0,1,1.757-.653,3.1,3.1,0,0,1,.41.031A2.658,2.658,0,1,0,10.8,6.71a2.043,2.043,0,0,1,.789,1.613" transform="translate(2.995 1.472)" fill="#3a713a"/>
      <path id="Caminho_26359" data-name="Caminho 26359" d="M10.277,6.554a1.155,1.155,0,0,1-.841-.363A2.054,2.054,0,0,0,8.21,7.8a1.021,1.021,0,0,1,.65,1.8,2.053,2.053,0,1,0,2.652-3.13,2.071,2.071,0,0,0-.414-.252,1.151,1.151,0,0,1-.821.342" transform="translate(2.278 1.718)" fill="#c5c100"/>
      <path id="Caminho_26360" data-name="Caminho 26360" d="M4.97,16.645c0,.02,0,.04,0,.06A2.112,2.112,0,0,0,8.6,15.54a2.151,2.151,0,0,0,.022-.29,2.071,2.071,0,0,0-.051-.456,1.466,1.466,0,0,1-2.078-1.338,1.425,1.425,0,0,1,.036-.317H6.5a2.2,2.2,0,0,0-.227.011,1.418,1.418,0,0,1-1.318.9,1.49,1.49,0,0,1-.187-.014,2.1,2.1,0,0,0-.386,1.212c0,.029,0,.059.005.087a1.766,1.766,0,0,1,.579,1.308" transform="translate(1.217 3.646)" fill="#c5c100"/>
      <path id="Caminho_26361" data-name="Caminho 26361" d="M12.516,9.579a2.741,2.741,0,0,0-.977,2.1,2.7,2.7,0,0,0,2.293,2.667A2.151,2.151,0,0,1,15.6,13.176a1.46,1.46,0,0,0-.015.2,1.386,1.386,0,1,0,1.4-1.385,2.78,2.78,0,0,0,.026-.36,2.733,2.733,0,0,0-2.736-2.7,2.756,2.756,0,0,0-1.757.653" transform="translate(3.202 2.477)" fill="#134213"/>
      <path id="Caminho_26362" data-name="Caminho 26362" d="M18.486,6.672A3.136,3.136,0,0,1,18.9,6.7a1.84,1.84,0,1,0-2.676.975,3.045,3.045,0,0,1,2.264-1.005" transform="translate(4.252 1.181)" fill="#648214"/>
      <path id="Caminho_26363" data-name="Caminho 26363" d="M18.291,4.569a1.64,1.64,0,0,0,.374-.045,1.638,1.638,0,0,1,1.092-.869,1.626,1.626,0,0,0,.13-1.088A1.469,1.469,0,0,1,18.6,1.321a1.688,1.688,0,0,0-.313-.029,1.638,1.638,0,0,0,0,3.277" transform="translate(4.621 0.359)" fill="#c5c100"/>
      <path id="Caminho_26364" data-name="Caminho 26364" d="M28.826,4.01a1.117,1.117,0,1,0-1.118-1.118A1.118,1.118,0,0,0,28.826,4.01" transform="translate(7.688 0.493)" fill="#134213"/>
      <path id="Caminho_26365" data-name="Caminho 26365" d="M25.993,5.445a.842.842,0,0,0,.538-1.589.833.833,0,0,0-.339-.072.842.842,0,0,0-.2,1.661" transform="translate(7.034 1.05)" fill="#134213"/>
      <path id="Caminho_26366" data-name="Caminho 26366" d="M47.06,12.616a2.036,2.036,0,0,0-2.032,1.919c0,.04-.006.079-.006.119a2.038,2.038,0,0,0,1.755,2.017,1.9,1.9,0,0,0,.284.023,2.039,2.039,0,1,0,0-4.078" transform="translate(12.492 3.501)" fill="#134213"/>
      <path id="Caminho_26367" data-name="Caminho 26367" d="M47.442,21.208a.847.847,0,1,0,.847.847.847.847,0,0,0-.847-.847" transform="translate(12.929 5.885)" fill="#134213"/>
      <path id="Caminho_26368" data-name="Caminho 26368" d="M43.395,18.6a2.02,2.02,0,0,0-2.021,2.02c0,.019,0,.037,0,.056A2.02,2.02,0,1,0,43.395,18.6" transform="translate(11.48 5.162)" fill="#3a713a"/>
      <path id="Caminho_26369" data-name="Caminho 26369" d="M41.469,27.151a1.308,1.308,0,1,0,1.028.482,1.587,1.587,0,0,1-1.028-.482" transform="translate(11.148 7.534)" fill="#134213"/>
      <path id="Caminho_26370" data-name="Caminho 26370" d="M42.313,28.217c.038,0,.077.006.116.006a1.591,1.591,0,1,0-1.592-1.594,1.635,1.635,0,0,0,.022.253,1.588,1.588,0,0,0,1.454,1.335" transform="translate(11.332 6.948)" fill="#c5c100"/>
      <path id="Caminho_26371" data-name="Caminho 26371" d="M8.976,6.218a1.16,1.16,0,1,0,.272-1.23,1.5,1.5,0,0,1,.036.323,1.483,1.483,0,0,1-.308.907" transform="translate(2.491 1.291)" fill="#134213"/>
      <path id="Caminho_26372" data-name="Caminho 26372" d="M7.168,8.119a.789.789,0,1,0-.789-.789.79.79,0,0,0,.789.789" transform="translate(1.77 1.815)" fill="#134213"/>
      <path id="Caminho_26373" data-name="Caminho 26373" d="M8.372,6.988A1.5,1.5,0,0,0,9.866,5.493a1.416,1.416,0,0,0-.037-.323A1.493,1.493,0,1,0,8.372,6.988" transform="translate(1.909 1.11)" fill="#3a713a"/>
      <path id="Caminho_26374" data-name="Caminho 26374" d="M9.444,8.472A1.025,1.025,0,0,0,8.438,7.448H8.419A1.021,1.021,0,1,0,9.444,8.472" transform="translate(2.052 2.067)" fill="#3a713a"/>
      <path id="Caminho_26375" data-name="Caminho 26375" d="M6.459,13.568a1.417,1.417,0,1,0-1.5.888,1.45,1.45,0,0,0,.184.013,1.419,1.419,0,0,0,1.32-.9" transform="translate(1.033 3.228)" fill="#3a713a"/>
      <path id="Caminho_26376" data-name="Caminho 26376" d="M8.037,18.635a1.794,1.794,0,1,0-1.8,1.8,1.8,1.8,0,0,0,1.8-1.8" transform="translate(1.235 4.673)" fill="#648214"/>
      <path id="Caminho_26377" data-name="Caminho 26377" d="M9.447,20.522a1.534,1.534,0,1,0-1.534-1.536,1.534,1.534,0,0,0,1.534,1.536" transform="translate(2.196 4.843)" fill="#134213"/>
      <path id="Caminho_26378" data-name="Caminho 26378" d="M20.946,21.945A2.143,2.143,0,1,0,18.8,24.089a2.251,2.251,0,0,0,.323-.026,2.145,2.145,0,0,0,1.82-2.118" transform="translate(4.623 5.495)" fill="#3a713a"/>
      <path id="Caminho_26379" data-name="Caminho 26379" d="M5.613,16.268a1.823,1.823,0,1,0,0,.06c0-.02,0-.04,0-.06" transform="translate(0.574 4.022)" fill="#134213"/>
      <path id="Caminho_26380" data-name="Caminho 26380" d="M18.265,4.02a1.621,1.621,0,0,0-.17.724,1.636,1.636,0,0,0,3.043.838.775.775,0,0,1,.216-1.059,1.637,1.637,0,0,0-1.621-1.417,1.66,1.66,0,0,0-.376.045,1.638,1.638,0,0,0-1.092.869" transform="translate(5.021 0.862)" fill="#648214"/>
      <path id="Caminho_26381" data-name="Caminho 26381" d="M15.138,12.452a1.463,1.463,0,0,1,.015-.2A2.155,2.155,0,1,0,17.3,13.6a1.386,1.386,0,0,1-2.161-1.15" transform="translate(3.648 3.4)" fill="#c5c100"/>
      <path id="Caminho_26382" data-name="Caminho 26382" d="M22.681,8.686a1.549,1.549,0,0,0,.011.189,3.437,3.437,0,0,0-1.815-.347,3.136,3.136,0,0,1,.04.469,3.057,3.057,0,0,1-3.061,3.062c-.088,0-.175-.006-.262-.013a3.489,3.489,0,0,0,2.832,3.419,3.555,3.555,0,0,0,3.493-1.318,1.742,1.742,0,0,1-.036-.358,1.786,1.786,0,0,1,.755-1.458,3.45,3.45,0,0,0-.378-1.93c.055,0,.109.008.165.006a1.73,1.73,0,0,0,.824-.213v-.006a2.316,2.316,0,0,1,.888-1.822,1.719,1.719,0,0,0-1.714-1.428,1.451,1.451,0,0,0-.184.011,1.754,1.754,0,0,0-1.557,1.737" transform="translate(4.882 1.925)" fill="#134213"/>
      <path id="Caminho_26383" data-name="Caminho 26383" d="M20.381,4.888a.782.782,0,1,0,.339-.643.777.777,0,0,0-.339.643" transform="translate(5.655 1.14)" fill="#134213"/>
      <path id="Caminho_26384" data-name="Caminho 26384" d="M8.135,3.121a.963.963,0,0,0,.192,0,1.179,1.179,0,1,0,.787-1.253.931.931,0,1,0-.979,1.251" transform="translate(2.028 0.35)" fill="#134213"/>
      <path id="Caminho_26385" data-name="Caminho 26385" d="M19.467,2.925a1.453,1.453,0,0,0,.167.01,1.468,1.468,0,1,0-1.469-1.47,1.506,1.506,0,0,0,.018.216,1.469,1.469,0,0,0,1.284,1.244" transform="translate(5.04 0)" fill="#134213"/>
      <path id="Caminho_26386" data-name="Caminho 26386" d="M5.092,6.718A.719.719,0,1,0,4.373,6a.72.72,0,0,0,.719.72" transform="translate(1.213 1.465)" fill="#648214"/>
      <path id="Caminho_26387" data-name="Caminho 26387" d="M14.041,5.319a.637.637,0,0,1-.183.447,1.857,1.857,0,0,0,1.063.332,1.873,1.873,0,0,0,.047-3.746,1.105,1.105,0,0,1-1.8,1.216,1.838,1.838,0,0,0-.12.652,1.87,1.87,0,0,0,.075.525.624.624,0,0,1,.28-.068.64.64,0,0,1,.64.641" transform="translate(3.62 0.653)" fill="#c5c100"/>
      <path id="Caminho_26388" data-name="Caminho 26388" d="M21.988,6.814a1.194,1.194,0,1,0-1.194,1.2,1.195,1.195,0,0,0,1.194-1.2" transform="translate(5.438 1.56)" fill="#134213"/>
      <path id="Caminho_26389" data-name="Caminho 26389" d="M6.718,11.13a1.5,1.5,0,1,0,1.5-1.5,1.5,1.5,0,0,0-1.5,1.5" transform="translate(1.864 2.673)" fill="#648214"/>
      <path id="Caminho_26390" data-name="Caminho 26390" d="M8.015,16.2a.638.638,0,1,0,.637.639.637.637,0,0,0-.637-.639" transform="translate(2.048 4.497)" fill="#134213"/>
      <path id="Caminho_26391" data-name="Caminho 26391" d="M7.5,15.176A1.469,1.469,0,1,0,6.07,13.388a1.442,1.442,0,0,0-.036.317A1.47,1.47,0,0,0,7.5,15.176" transform="translate(1.674 3.396)" fill="#134213"/>
      <path id="Caminho_26392" data-name="Caminho 26392" d="M32.5,16.118a2.1,2.1,0,0,0-4.034.666,1.952,1.952,0,0,1,.551-.08,1.921,1.921,0,0,1,1.924,1.917,1.891,1.891,0,0,1-.037.372,2.089,2.089,0,0,0,1.065-.516,2.973,2.973,0,0,1,.531-2.358" transform="translate(7.899 4.113)" fill="#c5c100"/>
      <path id="Caminho_26393" data-name="Caminho 26393" d="M27.133,32.385a2.434,2.434,0,0,0-.485-.05,2.4,2.4,0,1,0,1.986,1.054,2.495,2.495,0,0,1-1.5-1" transform="translate(6.728 8.973)" fill="#648214"/>
      <path id="Caminho_26394" data-name="Caminho 26394" d="M24.312,10.9a1.8,1.8,0,0,0-1.795,1.792,1.739,1.739,0,0,0,.036.356,1.795,1.795,0,1,0,2.828-1.794,2.335,2.335,0,0,1-.5-.262,1.78,1.78,0,0,0-.568-.093" transform="translate(6.248 3.024)" fill="#3a713a"/>
      <path id="Caminho_26395" data-name="Caminho 26395" d="M25.782,14.294a2.716,2.716,0,0,0-1.225-.281,2.756,2.756,0,0,0-2.735,2.747,2.713,2.713,0,0,0,2.738,2.7,2.756,2.756,0,0,0,2.63-2.013,2.643,2.643,0,0,0,.1-.735,2.694,2.694,0,0,0-1.51-2.422" transform="translate(6.055 3.889)" fill="#3a713a"/>
      <path id="Caminho_26396" data-name="Caminho 26396" d="M37.135,26.018c.028,0,.055,0,.084,0a3.589,3.589,0,0,0,.512-.9c-.036,0-.072.006-.109.006a1.495,1.495,0,0,1-.08-2.988,3.531,3.531,0,0,0-3.132-1.829,3.577,3.577,0,0,0-.8.1,2.642,2.642,0,0,1-2.36,3.786,2.972,2.972,0,0,1-.388-.028,3.509,3.509,0,0,0,4.06,3.2,2.491,2.491,0,0,1,2.211-1.348" transform="translate(8.564 5.636)" fill="#134213"/>
      <path id="Caminho_26397" data-name="Caminho 26397" d="M32.256,10.464a3.533,3.533,0,0,0-.538.392,1.608,1.608,0,0,1-1.152,2.356c0,.074-.01.147-.01.221a3.393,3.393,0,0,0,2.291,3.206,2.983,2.983,0,0,1,2.642-.165,3.467,3.467,0,0,0,1.883-2.453,2.334,2.334,0,0,1-1.4-3.431,3.456,3.456,0,0,0-1.983-.614,3.459,3.459,0,0,0-1.736.488" transform="translate(8.479 2.768)" fill="#134213"/>
      <path id="Caminho_26398" data-name="Caminho 26398" d="M28.981,35.484a2.219,2.219,0,0,0-.158.479,2.154,2.154,0,0,0,.052,1.073,2.2,2.2,0,0,0,1.681,1.51,2.227,2.227,0,0,0,2.611-1.736,2.183,2.183,0,0,0-.755-2.126,2.414,2.414,0,0,1-3.431.8" transform="translate(7.985 9.624)" fill="#134213"/>
      <path id="Caminho_26399" data-name="Caminho 26399" d="M32.832,26.839a3.386,3.386,0,0,0-3.43-3.384,3.452,3.452,0,0,0-2.812,1.491,2.777,2.777,0,0,1-.321,3.323,3.4,3.4,0,0,0,3.139,2.013,3.449,3.449,0,0,0,3.424-3.443" transform="translate(7.289 6.508)" fill="#134213"/>
      <path id="Caminho_26400" data-name="Caminho 26400" d="M20.328,19.523a1.522,1.522,0,0,0,.018.216,1.483,1.483,0,1,0-.018-.216" transform="translate(5.641 5.002)" fill="#648214"/>
      <path id="Caminho_26401" data-name="Caminho 26401" d="M32.678,15.277a3.025,3.025,0,0,0-.925.824,3,3,0,1,0,.925-.824" transform="translate(8.647 4.129)" fill="#648214"/>
      <path id="Caminho_26402" data-name="Caminho 26402" d="M27.645,24.915a2.787,2.787,0,0,0-2.384-1.344c-.046,0-.091,0-.137.008a2.792,2.792,0,1,0,2.52,1.336" transform="translate(6.235 6.541)" fill="#648214"/>
      <path id="Caminho_26403" data-name="Caminho 26403" d="M36.264,14.141a2.339,2.339,0,1,0-1.4-3.431,2.318,2.318,0,0,0-.322,1.178,2.342,2.342,0,0,0,1.717,2.253" transform="translate(9.586 2.65)" fill="#648214"/>
      <path id="Caminho_26404" data-name="Caminho 26404" d="M28.294,18.222a3.028,3.028,0,0,0-3.042.669,1.56,1.56,0,0,1-.57,3.014,1.588,1.588,0,0,1-.293-.028A3.043,3.043,0,1,0,30,19.639a1.921,1.921,0,0,1-1.705-1.417" transform="translate(6.768 5.013)" fill="#648214"/>
      <path id="Caminho_26405" data-name="Caminho 26405" d="M34.368,21.829a2.655,2.655,0,0,0-2.67-2.621,2.645,2.645,0,0,0-.339,5.264,2.6,2.6,0,0,0,.388.028,2.646,2.646,0,0,0,2.62-2.671" transform="translate(8.069 5.33)" fill="#c5c100"/>
      <path id="Caminho_26406" data-name="Caminho 26406" d="M34.974,23.248a1.5,1.5,0,0,0,1.51,1.482c.036,0,.072,0,.107-.006a1.5,1.5,0,0,0-.135-2.985c-.018,0-.036,0-.054,0a1.5,1.5,0,0,0-1.428,1.506" transform="translate(9.705 6.032)" fill="#c5c100"/>
      <path id="Caminho_26407" data-name="Caminho 26407" d="M35.4,28.152a3.358,3.358,0,0,0-3.034.217,1.827,1.827,0,1,1-1.628,3.269,3.381,3.381,0,0,0,3.019,2.989,3.277,3.277,0,0,0,.337.017,3.374,3.374,0,0,0,2.238-5.9,2.5,2.5,0,0,1-.933-.591" transform="translate(8.53 7.739)" fill="#648214"/>
      <path id="Caminho_26408" data-name="Caminho 26408" d="M27.626,9.925A2.314,2.314,0,0,1,25.731,12.2a2.644,2.644,0,1,0,3.577-3.877,1.61,1.61,0,0,1-2.514-.441,2.5,2.5,0,0,0-.235.093,2.314,2.314,0,0,1,1.067,1.949" transform="translate(7.14 2.187)" fill="#648214"/>
      <path id="Caminho_26409" data-name="Caminho 26409" d="M27.049,30.88a2.371,2.371,0,1,0-2.375,2.379,2.372,2.372,0,0,0,2.375-2.379" transform="translate(6.188 7.912)" fill="#3a713a"/>
      <path id="Caminho_26410" data-name="Caminho 26410" d="M33.639,29.955a1.826,1.826,0,1,0-1.827,1.831,1.823,1.823,0,0,0,1.827-1.831" transform="translate(8.32 7.806)" fill="#c5c100"/>
      <path id="Caminho_26411" data-name="Caminho 26411" d="M26.52,20.189a1.562,1.562,0,0,0-.993-1.454,1.543,1.543,0,0,0-.57-.109,1.561,1.561,0,0,0-.293,3.094,1.577,1.577,0,0,0,.293.028,1.561,1.561,0,0,0,1.562-1.56" transform="translate(6.492 5.169)" fill="#c5c100"/>
      <path id="Caminho_26412" data-name="Caminho 26412" d="M32.319,11.616a1.613,1.613,0,1,0-1.613,1.612,1.673,1.673,0,0,0,.267-.024,1.612,1.612,0,0,0,1.346-1.588" transform="translate(8.072 2.776)" fill="#c5c100"/>
      <path id="Caminho_26413" data-name="Caminho 26413" d="M30.278,29.859a2.514,2.514,0,0,0-3.671,3.376,2.55,2.55,0,0,0,.436.477,2.5,2.5,0,0,0,1.691.586,2.4,2.4,0,0,1,2.322-1.74,2.521,2.521,0,0,0-.778-2.7" transform="translate(7.255 8.122)" fill="#c5c100"/>
      <path id="Caminho_26414" data-name="Caminho 26414" d="M28.662,32.7a2.426,2.426,0,0,0,.3,3.411,2.523,2.523,0,0,0,.213.161,2.417,2.417,0,1,0-.508-3.572" transform="translate(7.796 8.836)" fill="#3a713a"/>
      <path id="Caminho_26415" data-name="Caminho 26415" d="M18.026,18.919a.964.964,0,0,0-.964-.962.936.936,0,0,0-.134.014.957.957,0,1,0,1.1.948" transform="translate(4.467 4.983)" fill="#3a713a"/>
      <path id="Caminho_26416" data-name="Caminho 26416" d="M29.273,8.406a1.923,1.923,0,1,0,3.846,0c0-.056,0-.111-.009-.167a1.923,1.923,0,0,0-3.838.167" transform="translate(8.123 1.801)" fill="#134213"/>
      <path id="Caminho_26417" data-name="Caminho 26417" d="M30,17.406a1.923,1.923,0,0,0-.552.082,2.1,2.1,0,0,1,1.482-1.872c.009-.095.014-.188.014-.284a3.037,3.037,0,0,0-6.023-.56,2.694,2.694,0,0,1,1.51,2.422,2.734,2.734,0,0,1-.1.735,3.022,3.022,0,0,0,1.578.443,2.9,2.9,0,0,0,.448-.037,1.9,1.9,0,0,0-.21,1.49,1.921,1.921,0,0,0,1.705,1.417c.05,0,.1.008.149.008A1.923,1.923,0,0,0,31.888,19.7a1.872,1.872,0,0,0,.037-.372A1.921,1.921,0,0,0,30,17.406" transform="translate(6.915 3.41)" fill="#134213"/>
      <path id="Caminho_26418" data-name="Caminho 26418" d="M20.343,29.125a1.035,1.035,0,1,0-1.035-1.037,1.036,1.036,0,0,0,1.035,1.037" transform="translate(5.358 7.507)" fill="#3a713a"/>
      <path id="Caminho_26419" data-name="Caminho 26419" d="M24.67,43.172a.774.774,0,1,0,.091-.009c-.032,0-.06.006-.091.009" transform="translate(6.615 11.977)" fill="#134213"/>
      <path id="Caminho_26420" data-name="Caminho 26420" d="M26.893,46.03a1.4,1.4,0,1,0-1.4-1.407,1.406,1.406,0,0,0,1.4,1.407" transform="translate(7.073 11.993)" fill="#c5c100"/>
      <path id="Caminho_26421" data-name="Caminho 26421" d="M23.586,9.985v.006A2.321,2.321,0,0,0,25.9,12.3a2.342,2.342,0,0,0,.425-.041,2.314,2.314,0,1,0-2.741-2.275" transform="translate(6.545 2.127)" fill="#c5c100"/>
      <path id="Caminho_26422" data-name="Caminho 26422" d="M28.031,9.259A1.614,1.614,0,1,0,26.6,8.4a1.606,1.606,0,0,0,1.428.864" transform="translate(7.33 1.674)" fill="#134213"/>
      <path id="Caminho_26423" data-name="Caminho 26423" d="M9.57,13.411a1.456,1.456,0,1,0-.5-1.343,1.457,1.457,0,0,0,.5,1.343" transform="translate(2.512 3.011)" fill="#3a713a"/>
      <path id="Caminho_26424" data-name="Caminho 26424" d="M21.524,9.214a2.96,2.96,0,0,0-.04-.468,3.054,3.054,0,0,0-2.607-2.569,3.153,3.153,0,0,0-.413-.031,3.065,3.065,0,0,0-.263,6.118c.087.006.174.013.263.013a3.057,3.057,0,0,0,3.06-3.063" transform="translate(4.274 1.706)" fill="#c5c100"/>
      <path id="Caminho_26425" data-name="Caminho 26425" d="M14,4.046A1.107,1.107,0,0,0,15.1,2.938a1.1,1.1,0,0,0-.092-.439A1.106,1.106,0,1,0,14,4.046" transform="translate(3.577 0.509)" fill="#134213"/>
      <path id="Caminho_26426" data-name="Caminho 26426" d="M12.824,4.814a.639.639,0,1,0,.639-.641.618.618,0,0,0-.278.068.635.635,0,0,0-.36.574" transform="translate(3.558 1.158)" fill="#134213"/>
      <path id="Caminho_26427" data-name="Caminho 26427" d="M4.488,44.7H.213a.187.187,0,0,0-.213.16V62.017a.187.187,0,0,0,.213.158H4.488a.185.185,0,0,0,.212-.158V44.858a.185.185,0,0,0-.212-.16" transform="translate(0 12.403)" fill="#134213"/>
      <path id="Caminho_26428" data-name="Caminho 26428" d="M46.792,48.421H42.813a.187.187,0,0,0-.212.16v12.43a.185.185,0,0,0,.212.16h3.979a.186.186,0,0,0,.213-.16V48.581a.188.188,0,0,0-.213-.16" transform="translate(11.821 13.436)" fill="#134213"/>
    </g>
  </g>
</svg>
