<?xml version="1.0" encoding="UTF-8"?> <svg xmlns="http://www.w3.org/2000/svg" id="logo" width="300" height="64.893" viewBox="0 0 300 64.893"><path id="Path_2618" data-name="Path 2618" d="M299.55,63.787c-10.554,0-17.224,9.9-17.224,24.757S289,113.3,299.55,113.3c10.639,0,17.224-9.9,17.224-24.757S310.188,63.787,299.55,63.787ZM305.4,106.64a5.851,5.851,0,1,1-11.7,0V70.448a5.851,5.851,0,1,1,11.7,0Z" transform="translate(-144.626 -48.742)" fill="#ea9f2e"></path><path id="Path_2619" data-name="Path 2619" d="M174.427,63.787c-10.554,0-17.224,9.9-17.224,24.757s6.67,24.757,17.224,24.757c10.639,0,17.224-9.9,17.224-24.757S185.066,63.787,174.427,63.787Zm5.851,42.853a5.851,5.851,0,1,1-11.7,0V70.448a5.851,5.851,0,1,1,11.7,0Z" transform="translate(-97.167 -48.742)" fill="#ea9f2e"></path><path id="Path_2620" data-name="Path 2620" d="M136.36,63.787c-10.554,0-17.224,9.9-17.224,24.757s6.67,24.757,17.224,24.757c10.639,0,17.224-9.9,17.224-24.757S147,63.787,136.36,63.787Zm5.851,42.853a5.852,5.852,0,1,1-11.7,0V70.448a5.852,5.852,0,1,1,11.7,0Z" transform="translate(-82.728 -48.742)" fill="#ea9f2e"></path><path id="Path_2621" data-name="Path 2621" d="M255.377,110.852v1.68H237.2v-1.68c3.161,0,3.853-.593,3.853-3.359V80.229c0-6.125-2.568-8.5-6.717-8.5a9.589,9.589,0,0,0-7.113,3.556v32.6c0,2.173.79,2.963,4.149,2.963v1.68H212.7v-1.68c3.556,0,4.247-.593,4.247-2.963V74.005c0-3.556-.79-4.149-4.247-3.556V69.264l13.731-4.149h.79V74.2c2.173-5.433,6.816-9.68,12.941-9.68,7.211,0,11.261,4.742,11.261,14.225v28.746C251.426,110.259,252.413,110.852,255.377,110.852Z" transform="translate(-118.217 -49.021)" fill="#ea9f2e"></path><path id="Path_2622" data-name="Path 2622" d="M405.208,110.852v1.68H387.032v-1.68c3.062,0,3.753-.691,3.753-2.865V79.438c0-5.236-2.272-7.7-6.223-7.7-2.667,0-4.939,1.284-7.113,3.853a32.148,32.148,0,0,1,.2,3.26v29.141c0,2.272.889,2.865,3.951,2.865v1.68H363.324v-1.68c3.161,0,4.05-.691,4.05-2.865V79.438c0-5.038-2.272-7.7-6.322-7.7a8.792,8.792,0,0,0-6.915,3.457v32.7c0,2.173.791,2.963,4.149,2.963v1.68h-18.67v-1.68c3.556,0,4.247-.593,4.247-2.963V74.005c0-3.556-.79-4.149-4.247-3.556V69.264l13.73-4.149h.79V74.2c2.272-5.63,6.915-9.68,12.447-9.68,6.124,0,9.779,3.457,10.767,10.076,2.667-6.322,7.31-10.076,12.842-10.076,7.211,0,10.965,4.643,10.965,14.027v29.438C401.158,110.16,401.948,110.852,405.208,110.852Z" transform="translate(-166.356 -49.021)" fill="#ea9f2e"></path><path id="Path_2623" data-name="Path 2623" d="M444.814,101.379c3.852,0,4.742-.79,4.742-3.359v-32.7c0-4.05-.889-4.742-4.742-4.247v-.988l14.126-4.445h.889V98.02c0,2.568.889,3.359,4.643,3.359v1.68H444.814Zm2.766-55.114a6.717,6.717,0,0,1,13.434,0,6.717,6.717,0,1,1-13.434,0Z" transform="translate(-206.258 -39.548)" fill="#ea9f2e"></path><path id="Path_2624" data-name="Path 2624" d="M518.572,102.455c-1.087,7.705-3.951,11.064-9.088,11.064-5.038,0-7.9-2.865-8.89-8.5-1.976,5.631-5.631,8.891-10.57,8.891-6.124,0-10.174-3.655-10.174-9.878,0-7.211,6.026-10.768,12.546-12.941l7.9-2.568V79.241c0-6.619-3.26-10.174-9.78-10.174a15.638,15.638,0,0,0-7.31,1.778c.889,4.248,5.828,5.631,5.828,9.977a5.534,5.534,0,0,1-5.828,5.532c-3.655,0-5.927-2.766-5.927-6.717,0-8,9.286-15.114,19.856-15.114,8.693,0,13.534,5.136,13.534,14.719v25.19c0,2.47.889,4.149,2.569,4.149,2.173,0,3.359-1.976,4.347-6.421Zm-18.177.494a21.507,21.507,0,0,1-.1-2.568V90.5l-3.457,1.284c-4.84,1.778-8,4.742-8,9.286,0,3.951,1.877,6.619,5.433,6.619C496.741,107.69,498.815,106.11,500.4,102.949Z" transform="translate(-218.572 -49.021)" fill="#ea9f2e"></path><path id="Path_2625" data-name="Path 2625" d="M94.066,93.614l-.791,19.164h-32.2v-9.483L93.256,75.437h-22.9c-7.311,0-8,1.186-8.693,7.014H60.479v-16.5H95.924v9.483L63.738,103.295H83.5c7.013,0,8.693-2.568,9.483-9.681Z" transform="translate(-60.479 -49.564)" fill="#ea9f2e"></path></svg> 